<?xml version="1.0" encoding="utf-8"?>
<!-- Generator: Adobe Illustrator 26.0.1, SVG Export Plug-In . SVG Version: 6.00 Build 0)  -->
<svg version="1.1" id="Layer_1" xmlns="http://www.w3.org/2000/svg" xmlns:xlink="http://www.w3.org/1999/xlink" x="0px" y="0px"
	 viewBox="0 0 841.89 595.28" style="enable-background:new 0 0 841.89 595.28;" xml:space="preserve">
<style type="text/css">
	.st0{fill:#17223B;}
	.st1{fill:#60BB9C;}
</style>
<g>
	<g>
		<path class="st0" d="M241.56,347.67c2.26,0,4.35,0.3,6.27,0.89s3.59,1.49,5.01,2.69c1.42,1.2,2.53,2.67,3.33,4.42
			c0.8,1.75,1.19,3.77,1.19,6.05c0,2.29-0.4,4.31-1.19,6.07c-0.8,1.76-1.91,3.23-3.33,4.42c-1.42,1.19-3.09,2.08-5.01,2.69
			s-4.01,0.91-6.27,0.91h-6.36v-28.15H241.56z M247.22,372.61c1.65-0.55,3.03-1.33,4.14-2.35c1.11-1.02,1.96-2.25,2.54-3.68
			c0.58-1.43,0.87-3.05,0.87-4.84c0-1.79-0.33-3.41-0.98-4.84c-0.65-1.43-1.56-2.66-2.72-3.67c-1.17-1.01-2.56-1.79-4.19-2.34
			c-1.63-0.55-3.41-0.82-5.36-0.82h-3.83v23.37h3.83C243.68,373.43,245.58,373.16,247.22,372.61z"/>
		<path class="st0" d="M283.02,365.23v2.32H272.8v-2.32H283.02z"/>
		<path class="st0" d="M306.75,375.03c-1.76-0.75-3.25-1.78-4.47-3.08c-1.22-1.3-2.16-2.83-2.82-4.59
			c-0.66-1.76-0.99-3.64-0.99-5.63c0-2,0.33-3.87,0.99-5.63c0.66-1.76,1.6-3.29,2.82-4.59c1.22-1.3,2.71-2.33,4.47-3.08
			c1.76-0.75,3.74-1.13,5.94-1.13c1.73,0,3.35,0.2,4.88,0.59c1.52,0.39,3,1.03,4.44,1.9l-1.11,2.12c-1.28-0.76-2.58-1.33-3.9-1.7
			c-1.32-0.37-2.76-0.56-4.3-0.56c-1.57,0-3.05,0.27-4.46,0.81s-2.63,1.32-3.7,2.35c-1.06,1.03-1.91,2.29-2.54,3.78
			c-0.63,1.49-0.94,3.2-0.94,5.13c0,1.93,0.31,3.64,0.94,5.13s1.47,2.75,2.54,3.78s2.3,1.82,3.7,2.35c1.4,0.54,2.89,0.81,4.46,0.81
			c1.3,0,2.61-0.15,3.94-0.45c1.32-0.3,2.43-0.67,3.33-1.09v-7.67h-8.14v-2.46h10.63v11.54c-1.35,0.83-2.86,1.45-4.56,1.87
			c-1.69,0.42-3.42,0.62-5.2,0.62C310.49,376.16,308.51,375.78,306.75,375.03z"/>
		<path class="st0" d="M348.82,375.25c-1.47-0.61-2.66-1.43-3.56-2.47c-0.91-1.04-1.55-2.25-1.93-3.62c-0.38-1.37-0.57-2.8-0.57-4.3
			v-17.18h2.45v16.81c0,3.12,0.72,5.45,2.15,7c1.44,1.55,3.74,2.32,6.93,2.32c3.16,0,5.46-0.77,6.89-2.3
			c1.44-1.54,2.15-3.87,2.15-7.01v-16.81h2.46v17.18c0,1.5-0.19,2.94-0.57,4.3c-0.38,1.37-1.02,2.57-1.92,3.62
			c-0.9,1.04-2.08,1.87-3.56,2.47c-1.48,0.61-3.3,0.91-5.45,0.91C352.11,376.16,350.29,375.85,348.82,375.25z"/>
		<path class="st0" d="M404.73,375.82l-3.56-8.88h-12.38l-3.56,8.88h-2.69l11.3-28.15h2.29l11.3,28.15H404.73z M400.19,364.49
			l-5.21-12.91l-5.21,12.91H400.19z"/>
		<path class="st0" d="M427,375.82h-2.49v-28.15h9.05c1.75,0,3.25,0.21,4.49,0.62c1.24,0.41,2.26,0.97,3.04,1.68
			c0.79,0.71,1.36,1.54,1.72,2.51c0.36,0.96,0.54,1.97,0.54,3.03c0,0.79-0.1,1.58-0.29,2.39c-0.19,0.81-0.55,1.57-1.09,2.29
			c-0.54,0.72-1.27,1.35-2.19,1.9c-0.92,0.55-1.89,0.91-2.93,1.09l8.04,12.65h-2.93l-7.84-12.24h-0.5h-0.84H427V375.82z M427,361.19
			h6.09c1.23,0,2.33-0.1,3.3-0.3c0.96-0.2,1.77-0.53,2.4-0.99c0.64-0.46,1.13-1.05,1.46-1.77c0.34-0.72,0.5-1.6,0.5-2.66
			c0-0.83-0.13-1.58-0.4-2.25c-0.27-0.67-0.7-1.24-1.29-1.7c-0.59-0.46-1.38-0.82-2.37-1.08s-2.19-0.39-3.6-0.39H427V361.19z"/>
		<path class="st0" d="M468.83,347.67c2.26,0,4.36,0.3,6.27,0.89c1.92,0.59,3.59,1.49,5.01,2.69s2.53,2.67,3.33,4.42
			c0.8,1.75,1.19,3.77,1.19,6.05c0,2.29-0.4,4.31-1.19,6.07c-0.8,1.76-1.91,3.23-3.33,4.42s-3.09,2.08-5.01,2.69
			c-1.92,0.61-4.01,0.91-6.27,0.91h-6.36v-28.15H468.83z M474.5,372.61c1.65-0.55,3.03-1.33,4.14-2.35
			c1.11-1.02,1.96-2.25,2.54-3.68c0.58-1.43,0.88-3.05,0.88-4.84c0-1.79-0.33-3.41-0.98-4.84c-0.65-1.43-1.56-2.66-2.72-3.67
			s-2.56-1.79-4.19-2.34c-1.62-0.55-3.41-0.82-5.36-0.82h-3.83v23.37h3.83C470.95,373.43,472.85,373.16,474.5,372.61z"/>
		<path class="st0" d="M502.93,347.67h2.49v28.15h-2.49V347.67z"/>
		<path class="st0" d="M544.7,375.82l-3.57-8.88h-12.38l-3.56,8.88h-2.69l11.3-28.15h2.29l11.3,28.15H544.7z M540.16,364.49
			l-5.21-12.91l-5.21,12.91H540.16z"/>
		<path class="st0" d="M567,375.82h-2.52v-28.15h3.3l15.34,24.72v-24.72h2.52v28.15h-3.29L567,351.1V375.82z"/>
	</g>
</g>
<g>
	<path class="st0" d="M436.19,234.78c1.96-0.36,3.97-0.61,6.05-0.61c9.49,0,17.91,2.45,23.79,6.09l5.55-12.87
		c-6.99-4.24-18.21-7.08-29.97-7.08c-7.25,0-13.75,1.43-19.37,3.99c5.02,2.37,9.36,5.42,12.84,9.17
		C435.47,233.89,435.82,234.34,436.19,234.78z"/>
	<path class="st0" d="M445.49,259.27c0.06,0.99,0.09,2,0.09,3.02c0,3.72-0.41,7.34-1.16,10.78h14.62l-0.01,15.03
		c-0.18,0.08-0.14,0.09,0.04,0.04c-1.45,0.47-2.78,0.88-3.94,1.2c-0.6,0.18-1.13,0.33-1.64,0.48c-0.57,0.18-1.19,0.33-1.79,0.45
		c-0.51,0.12-0.9,0.21-1.19,0.27c-0.3,0.06-0.48,0.09-0.48,0.09c-2.57,0.51-5.22,0.78-7.79,0.78c-2.22,0-4.4-0.23-6.49-0.65
		c-0.34,0.4-0.63,0.83-0.98,1.21c-3.42,3.73-7.68,6.78-12.6,9.17c5.63,2.59,12.15,4.03,19.45,4.03c10.54,0,24.21-2.72,32-7.49
		v-15.49v-22.9H445.49z"/>
	<path class="st0" d="M441.4,273.06c0.78-3.34,1.19-6.93,1.19-10.78c0-1.02-0.03-2.03-0.09-3.02c-0.6-9.82-4.03-17.76-9.61-23.76
		c-3.76-4.06-8.51-7.22-14.03-9.49c-6.93-2.9-15.08-4.36-23.94-4.36h-7.09v13.58h7.3c4.36,0,8.39,0.42,12,1.28
		c5.49,1.25,10.06,3.58,13.46,7.05c4.24,4.33,6.63,10.48,6.63,18.72c0,8.84-2.33,15.23-6.6,19.64c-0.84,0.88-1.75,1.68-2.73,2.41
		c-1.97,1.46-4.23,2.61-6.75,3.5c-1.26,0.44-2.59,0.82-3.98,1.13c-3.76,0.87-7.94,1.25-12.54,1.25h-6.81v-54.99h-14.57v68.54h22.27
		c8.69,0,16.6-1.49,23.32-4.36c5.37-2.3,10.03-5.46,13.73-9.49C436.8,285.36,439.85,279.72,441.4,273.06z"/>
	<polygon class="st1" points="373.24,220.65 373.24,220.16 373.24,218.67 373.24,208.08 358.66,208.08 358.66,221.65 370.26,221.65 
		371.75,221.65 373.24,221.65 	"/>
</g>
</svg>
