<svg width="350" height="168" xmlns="http://www.w3.org/2000/svg" xml:space="preserve" version="1.1">

 <g>
  <title>Layer 1</title>
  <g id="svg_1">
   <g id="svg_2">
    <path id="svg_3" fill="#17223B" d="m6.36,139.59c2.26,0 4.35,0.3 6.27,0.89s3.59,1.49 5.01,2.69c1.42,1.2 2.53,2.67 3.33,4.42c0.8,1.75 1.19,3.77 1.19,6.05c0,2.29 -0.4,4.31 -1.19,6.07c-0.8,1.76 -1.91,3.23 -3.33,4.42c-1.42,1.19 -3.09,2.08 -5.01,2.69s-4.01,0.91 -6.27,0.91l-6.36,0l0,-28.15l6.36,0l0,0.01zm5.66,24.94c1.65,-0.55 3.03,-1.33 4.14,-2.35c1.11,-1.02 1.96,-2.25 2.54,-3.68c0.58,-1.43 0.87,-3.05 0.87,-4.84c0,-1.79 -0.33,-3.41 -0.98,-4.84c-0.65,-1.43 -1.56,-2.66 -2.72,-3.67c-1.17,-1.01 -2.56,-1.79 -4.19,-2.34c-1.63,-0.55 -3.41,-0.82 -5.36,-0.82l-3.83,0l0,23.37l3.83,0c2.16,-0.01 4.06,-0.28 5.7,-0.83z" class="st0"/>
    <path id="svg_4" fill="#17223B" d="m47.82,157.15l0,2.32l-10.22,0l0,-2.32l10.22,0z" class="st0"/>
    <path id="svg_5" fill="#17223B" d="m71.55,166.95c-1.76,-0.75 -3.25,-1.78 -4.47,-3.08c-1.22,-1.3 -2.16,-2.83 -2.82,-4.59c-0.66,-1.76 -0.99,-3.64 -0.99,-5.63c0,-2 0.33,-3.87 0.99,-5.63c0.66,-1.76 1.6,-3.29 2.82,-4.59c1.22,-1.3 2.71,-2.33 4.47,-3.08c1.76,-0.75 3.74,-1.13 5.94,-1.13c1.73,0 3.35,0.2 4.88,0.59c1.52,0.39 3,1.03 4.44,1.9l-1.11,2.12c-1.28,-0.76 -2.58,-1.33 -3.9,-1.7c-1.32,-0.37 -2.76,-0.56 -4.3,-0.56c-1.57,0 -3.05,0.27 -4.46,0.81s-2.63,1.32 -3.7,2.35c-1.06,1.03 -1.91,2.29 -2.54,3.78c-0.63,1.49 -0.94,3.2 -0.94,5.13c0,1.93 0.31,3.64 0.94,5.13s1.47,2.75 2.54,3.78s2.3,1.82 3.7,2.35c1.4,0.54 2.89,0.81 4.46,0.81c1.3,0 2.61,-0.15 3.94,-0.45c1.32,-0.3 2.43,-0.67 3.33,-1.09l0,-7.67l-8.14,0l0,-2.46l10.63,0l0,11.54c-1.35,0.83 -2.86,1.45 -4.56,1.87c-1.69,0.42 -3.42,0.62 -5.2,0.62c-2.21,0.01 -4.19,-0.37 -5.95,-1.12z" class="st0"/>
    <path id="svg_6" fill="#17223B" d="m113.62,167.17c-1.47,-0.61 -2.66,-1.43 -3.56,-2.47c-0.91,-1.04 -1.55,-2.25 -1.93,-3.62c-0.38,-1.37 -0.57,-2.8 -0.57,-4.3l0,-17.18l2.45,0l0,16.81c0,3.12 0.72,5.45 2.15,7c1.44,1.55 3.74,2.32 6.93,2.32c3.16,0 5.46,-0.77 6.89,-2.3c1.44,-1.54 2.15,-3.87 2.15,-7.01l0,-16.81l2.46,0l0,17.18c0,1.5 -0.19,2.94 -0.57,4.3c-0.38,1.37 -1.02,2.57 -1.92,3.62c-0.9,1.04 -2.08,1.87 -3.56,2.47c-1.48,0.61 -3.3,0.91 -5.45,0.91c-2.18,-0.01 -4,-0.32 -5.47,-0.92z" class="st0"/>
    <path id="svg_7" fill="#17223B" d="m169.53,167.74l-3.56,-8.88l-12.38,0l-3.56,8.88l-2.69,0l11.3,-28.15l2.29,0l11.3,28.15l-2.7,0zm-4.54,-11.33l-5.21,-12.91l-5.21,12.91l10.42,0z" class="st0"/>
    <path id="svg_8" fill="#17223B" d="m191.8,167.74l-2.49,0l0,-28.15l9.05,0c1.75,0 3.25,0.21 4.49,0.62c1.24,0.41 2.26,0.97 3.04,1.68c0.79,0.71 1.36,1.54 1.72,2.51c0.36,0.96 0.54,1.97 0.54,3.03c0,0.79 -0.1,1.58 -0.29,2.39c-0.19,0.81 -0.55,1.57 -1.09,2.29c-0.54,0.72 -1.27,1.35 -2.19,1.9c-0.92,0.55 -1.89,0.91 -2.93,1.09l8.04,12.65l-2.93,0l-7.84,-12.24l-0.5,0l-0.84,0l-5.78,0l0,12.23zm0,-14.63l6.09,0c1.23,0 2.33,-0.1 3.3,-0.3c0.96,-0.2 1.77,-0.53 2.4,-0.99c0.64,-0.46 1.13,-1.05 1.46,-1.77c0.34,-0.72 0.5,-1.6 0.5,-2.66c0,-0.83 -0.13,-1.58 -0.4,-2.25c-0.27,-0.67 -0.7,-1.24 -1.29,-1.7c-0.59,-0.46 -1.38,-0.82 -2.37,-1.08s-2.19,-0.39 -3.6,-0.39l-6.09,0l0,11.14z" class="st0"/>
    <path id="svg_9" fill="#17223B" d="m233.63,139.59c2.26,0 4.36,0.3 6.27,0.89c1.92,0.59 3.59,1.49 5.01,2.69s2.53,2.67 3.33,4.42c0.8,1.75 1.19,3.77 1.19,6.05c0,2.29 -0.4,4.31 -1.19,6.07c-0.8,1.76 -1.91,3.23 -3.33,4.42s-3.09,2.08 -5.01,2.69c-1.92,0.61 -4.01,0.91 -6.27,0.91l-6.36,0l0,-28.15l6.36,0l0,0.01zm5.67,24.94c1.65,-0.55 3.03,-1.33 4.14,-2.35c1.11,-1.02 1.96,-2.25 2.54,-3.68c0.58,-1.43 0.88,-3.05 0.88,-4.84c0,-1.79 -0.33,-3.41 -0.98,-4.84c-0.65,-1.43 -1.56,-2.66 -2.72,-3.67s-2.56,-1.79 -4.19,-2.34c-1.62,-0.55 -3.41,-0.82 -5.36,-0.82l-3.83,0l0,23.37l3.83,0c2.14,-0.01 4.04,-0.28 5.69,-0.83z" class="st0"/>
    <path id="svg_10" fill="#17223B" d="m267.73,139.59l2.49,0l0,28.15l-2.49,0l0,-28.15z" class="st0"/>
    <path id="svg_11" fill="#17223B" d="m309.5,167.74l-3.57,-8.88l-12.38,0l-3.56,8.88l-2.69,0l11.3,-28.15l2.29,0l11.3,28.15l-2.69,0zm-4.54,-11.33l-5.21,-12.91l-5.21,12.91l10.42,0z" class="st0"/>
    <path id="svg_12" fill="#17223B" d="m331.8,167.74l-2.52,0l0,-28.15l3.3,0l15.34,24.72l0,-24.72l2.52,0l0,28.15l-3.29,0l-15.35,-24.72l0,24.72z" class="st0"/>
   </g>
  </g>
  <g id="svg_13">
   <path id="svg_14" fill="#17223B" d="m200.99,26.7c1.96,-0.36 3.97,-0.61 6.05,-0.61c9.49,0 17.91,2.45 23.79,6.09l5.55,-12.87c-6.99,-4.24 -18.21,-7.08 -29.97,-7.08c-7.25,0 -13.75,1.43 -19.37,3.99c5.02,2.37 9.36,5.42 12.84,9.17c0.39,0.42 0.74,0.87 1.11,1.31z" class="st0"/>
   <path id="svg_15" fill="#17223B" d="m210.29,51.19c0.06,0.99 0.09,2 0.09,3.02c0,3.72 -0.41,7.34 -1.16,10.78l14.62,0l-0.01,15.03c-0.18,0.08 -0.14,0.09 0.04,0.04c-1.45,0.47 -2.78,0.88 -3.94,1.2c-0.6,0.18 -1.13,0.33 -1.64,0.48c-0.57,0.18 -1.19,0.33 -1.79,0.45c-0.51,0.12 -0.9,0.21 -1.19,0.27c-0.3,0.06 -0.48,0.09 -0.48,0.09c-2.57,0.51 -5.22,0.78 -7.79,0.78c-2.22,0 -4.4,-0.23 -6.49,-0.65c-0.34,0.4 -0.63,0.83 -0.98,1.21c-3.42,3.73 -7.68,6.78 -12.6,9.17c5.63,2.59 12.15,4.03 19.45,4.03c10.54,0 24.21,-2.72 32,-7.49l0,-15.49l0,-22.9l-28.13,0l0,-0.02z" class="st0"/>
   <path id="svg_16" fill="#17223B" d="m206.2,64.98c0.78,-3.34 1.19,-6.93 1.19,-10.78c0,-1.02 -0.03,-2.03 -0.09,-3.02c-0.6,-9.82 -4.03,-17.76 -9.61,-23.76c-3.76,-4.06 -8.51,-7.22 -14.03,-9.49c-6.93,-2.9 -15.08,-4.36 -23.94,-4.36l-7.09,0l0,13.58l7.3,0c4.36,0 8.39,0.42 12,1.28c5.49,1.25 10.06,3.58 13.46,7.05c4.24,4.33 6.63,10.48 6.63,18.72c0,8.84 -2.33,15.23 -6.6,19.64c-0.84,0.88 -1.75,1.68 -2.73,2.41c-1.97,1.46 -4.23,2.61 -6.75,3.5c-1.26,0.44 -2.59,0.82 -3.98,1.13c-3.76,0.87 -7.94,1.25 -12.54,1.25l-6.81,0l0,-54.99l-14.57,0l0,68.54l22.27,0c8.69,0 16.6,-1.49 23.32,-4.36c5.37,-2.3 10.03,-5.46 13.73,-9.49c4.24,-4.55 7.29,-10.19 8.84,-16.85z" class="st0"/>
   <polygon id="svg_17" fill="#60BB9C" points="138.0399932861328,12.569992065429688 138.0399932861328,12.080001831054688 138.0399932861328,10.589996337890625 138.0399932861328,0 123.46000671386719,0 123.46000671386719,13.569992065429688 135.0600128173828,13.569992065429688 136.5500030517578,13.569992065429688 138.0399932861328,13.569992065429688 " class="st1"/>
  </g>
 </g>
</svg>