<svg version="1.1" id="Layer_1" xmlns="http://www.w3.org/2000/svg" xmlns:xlink="http://www.w3.org/1999/xlink" x="0px" y="0px" style="enable-background:new 0 0 841.89 595.28;" xml:space="preserve" viewBox="235.12 208.05 350.62 168.2">
<style type="text/css">
	.st0{fill:#FFFFFF;}
	.st1{fill:#60BB9C;}
</style>
<g>
	<g>
		<g>
			<path class="st0" d="M241.48,347.74c2.27,0,4.36,0.3,6.27,0.89c1.92,0.59,3.59,1.49,5.01,2.69s2.53,2.67,3.33,4.42     c0.8,1.75,1.19,3.77,1.19,6.06s-0.4,4.31-1.19,6.07s-1.91,3.24-3.33,4.42c-1.42,1.19-3.1,2.09-5.01,2.69     c-1.92,0.61-4.01,0.91-6.27,0.91h-6.36v-28.16H241.48z M247.15,372.68c1.65-0.55,3.03-1.33,4.14-2.36     c1.11-1.02,1.96-2.25,2.54-3.68s0.87-3.05,0.87-4.84c0-1.79-0.33-3.41-0.98-4.84s-1.56-2.66-2.73-3.67     c-1.17-1.01-2.56-1.79-4.19-2.34c-1.63-0.55-3.42-0.82-5.37-0.82h-3.84v23.38h3.84C243.6,373.51,245.5,373.23,247.15,372.68z"/>
			<path class="st0" d="M282.96,365.3v2.32h-10.23v-2.32H282.96z"/>
			<path class="st0" d="M306.7,375.11c-1.76-0.75-3.25-1.78-4.48-3.08c-1.22-1.3-2.16-2.83-2.83-4.59s-0.99-3.64-0.99-5.64     s0.33-3.88,0.99-5.64s1.6-3.29,2.83-4.59c1.22-1.3,2.71-2.33,4.48-3.08c1.76-0.75,3.74-1.13,5.94-1.13c1.73,0,3.35,0.2,4.88,0.59     c1.53,0.39,3.01,1.03,4.44,1.9l-1.11,2.12c-1.28-0.76-2.58-1.33-3.9-1.7s-2.76-0.56-4.31-0.56c-1.57,0-3.06,0.27-4.46,0.81     s-2.64,1.32-3.7,2.36s-1.91,2.29-2.54,3.79c-0.63,1.49-0.94,3.2-0.94,5.13s0.31,3.64,0.94,5.13c0.63,1.49,1.47,2.75,2.54,3.79     c1.07,1.03,2.3,1.82,3.7,2.36s2.89,0.81,4.46,0.81c1.3,0,2.61-0.15,3.94-0.45c1.32-0.3,2.43-0.67,3.33-1.09v-7.67h-8.14v-2.46     h10.63v11.54c-1.35,0.83-2.87,1.45-4.56,1.87s-3.43,0.62-5.2,0.62C310.44,376.23,308.46,375.86,306.7,375.11z"/>
			<path class="st0" d="M348.79,375.33c-1.47-0.61-2.66-1.43-3.57-2.47c-0.91-1.04-1.55-2.25-1.94-3.62s-0.57-2.8-0.57-4.31v-17.19     h2.46v16.82c0,3.12,0.72,5.45,2.15,7c1.44,1.55,3.75,2.32,6.93,2.32c3.16,0,5.46-0.77,6.9-2.3c1.44-1.54,2.15-3.88,2.15-7.02     v-16.82h2.46v17.19c0,1.5-0.19,2.94-0.57,4.31s-1.02,2.57-1.92,3.62c-0.9,1.04-2.09,1.87-3.57,2.47s-3.3,0.91-5.45,0.91     C352.08,376.23,350.26,375.93,348.79,375.33z"/>
			<path class="st0" d="M404.73,375.9l-3.57-8.88h-12.38l-3.57,8.88h-2.69l11.3-28.16h2.29l11.31,28.16H404.73z M400.18,364.56     l-5.22-12.92l-5.21,12.92H400.18z"/>
			<path class="st0" d="M427,375.9h-2.49v-28.16h9.05c1.75,0,3.25,0.21,4.49,0.62c1.25,0.42,2.26,0.98,3.04,1.68     c0.79,0.71,1.36,1.54,1.72,2.51c0.36,0.96,0.54,1.97,0.54,3.03c0,0.79-0.1,1.58-0.29,2.39s-0.56,1.57-1.09,2.29     s-1.27,1.35-2.19,1.9c-0.92,0.55-1.9,0.91-2.93,1.09l8.04,12.65h-2.93l-7.84-12.25h-0.5h-0.84H427V375.9z M427,361.26h6.09     c1.23,0,2.33-0.1,3.3-0.3c0.96-0.2,1.77-0.53,2.41-0.99c0.64-0.46,1.13-1.05,1.46-1.77c0.34-0.72,0.5-1.6,0.5-2.66     c0-0.83-0.13-1.58-0.4-2.25c-0.27-0.67-0.7-1.24-1.29-1.7c-0.59-0.46-1.38-0.82-2.37-1.08s-2.19-0.39-3.6-0.39H427V361.26z"/>
			<path class="st0" d="M468.86,347.74c2.26,0,4.36,0.3,6.27,0.89c1.92,0.59,3.59,1.49,5.01,2.69c1.42,1.2,2.53,2.67,3.33,4.42     c0.8,1.75,1.19,3.77,1.19,6.06s-0.4,4.31-1.19,6.07c-0.8,1.76-1.91,3.24-3.33,4.42c-1.42,1.19-3.1,2.09-5.01,2.69     c-1.92,0.61-4.01,0.91-6.27,0.91h-6.36v-28.16H468.86z M474.53,372.68c1.65-0.55,3.03-1.33,4.14-2.36s1.96-2.25,2.54-3.68     s0.88-3.05,0.88-4.84c0-1.79-0.33-3.41-0.98-4.84s-1.56-2.66-2.73-3.67c-1.17-1.01-2.56-1.79-4.19-2.34     c-1.63-0.55-3.42-0.82-5.37-0.82h-3.83v23.38h3.83C470.98,373.51,472.88,373.23,474.53,372.68z"/>
			<path class="st0" d="M502.97,347.74h2.49v28.16h-2.49V347.74z"/>
			<path class="st0" d="M544.76,375.9l-3.57-8.88h-12.38l-3.57,8.88h-2.69l11.3-28.16h2.29l11.3,28.16H544.76z M540.22,364.56     L535,351.64l-5.22,12.92H540.22z"/>
			<path class="st0" d="M567.07,375.9h-2.52v-28.16h3.3l15.34,24.73v-24.73h2.52v28.16h-3.3l-15.34-24.73V375.9z"/>
		</g>
	</g>
	<g>
		<path class="st0" d="M436.19,234.79c1.97-0.36,3.98-0.61,6.05-0.61c9.5,0,17.92,2.45,23.8,6.09l5.56-12.87    c-6.99-4.24-18.22-7.08-29.99-7.08c-7.25,0-13.76,1.43-19.38,4c5.02,2.37,9.37,5.42,12.85,9.17    C435.48,233.9,435.83,234.35,436.19,234.79z"/>
		<path class="st0" d="M445.5,259.29c0.06,0.99,0.09,2,0.09,3.02c0,3.73-0.41,7.34-1.16,10.78h14.63l-0.01,15.04    c-0.18,0.08-0.14,0.09,0.04,0.04c-1.45,0.47-2.78,0.88-3.94,1.2c-0.6,0.18-1.13,0.33-1.64,0.48c-0.57,0.18-1.19,0.33-1.79,0.45    c-0.51,0.12-0.9,0.21-1.19,0.27c-0.3,0.06-0.48,0.09-0.48,0.09c-2.57,0.51-5.23,0.78-7.8,0.78c-2.22,0-4.4-0.23-6.5-0.65    c-0.34,0.4-0.63,0.83-0.98,1.21c-3.42,3.73-7.69,6.78-12.61,9.18c5.64,2.59,12.16,4.03,19.46,4.03c10.54,0,24.22-2.72,32.02-7.5    v-15.5v-22.91H445.5z"/>
		<path class="st0" d="M441.41,273.09c0.78-3.35,1.19-6.93,1.19-10.78c0-1.02-0.03-2.03-0.09-3.02c-0.6-9.83-4.03-17.77-9.62-23.77    c-3.76-4.06-8.51-7.23-14.04-9.5c-6.93-2.9-15.08-4.36-23.95-4.36h-7.09v13.59h7.3c4.36,0,8.39,0.42,12.01,1.28    c5.5,1.25,10.07,3.58,13.47,7.05c4.24,4.33,6.63,10.48,6.63,18.73c0,8.84-2.33,15.23-6.6,19.65c-0.84,0.88-1.75,1.68-2.73,2.41    c-1.97,1.46-4.23,2.61-6.76,3.5c-1.26,0.44-2.59,0.82-3.98,1.13c-3.76,0.87-7.94,1.25-12.54,1.25h-6.81v-55.02h-14.58v68.58h22.28    c8.69,0,16.61-1.49,23.33-4.36c5.38-2.3,10.04-5.47,13.74-9.5C436.81,285.4,439.86,279.75,441.41,273.09z"/>
		<polygon class="st1" points="373.22,220.66 373.22,220.17 373.22,218.67 373.22,208.08 358.63,208.08 358.63,221.66     370.24,221.66 371.73,221.66 373.22,221.66   "/>
	</g>
</g>
</svg>